<svg version="1.1" xmlns="http://www.w3.org/2000/svg" x="0px" y="0px" viewBox="0 0 90.9 40.1" style="enable-background:new 0 0 90.9 40.1;" xml:space="preserve">
                    <g id="logo-color">
                        <path class="st0" d="M89.1,17c-1,0-1.8-0.8-1.8-1.8c0-1,0.8-1.8,1.8-1.8c1,0,1.8,0.8,1.8,1.8C90.9,16.2,90.1,17,89.1,17z
                             M89.1,13.7c-0.9,0-1.6,0.7-1.6,1.6c0,0.9,0.7,1.6,1.6,1.6c0.9,0,1.6-0.7,1.6-1.6C90.7,14.4,90,13.7,89.1,13.7z"></path>
                        <polygon class="st0" points="90.1,15.1 89.2,15.1 89.2,14.2 89,14.2 89,15.1 88.1,15.1 88.1,15.3 89,15.3 89,16.2 89.2,16.2
                            89.2,15.3 90.1,15.3 	"></polygon>
                        <path class="st0" d="M26.7,25.8c-1.6,0-2.2-0.7-2.2-2.5v-2.5h12.8v-6.4c0-3.1-2-5-5.1-5h-4.8c-4.1,0-6,1.9-6,5.6v8.7
                            c0,1.2,0.4,2.3,1.1,3.3c1,1.3,2.3,1.9,4.2,1.9h10.7v-3.3H26.7z M24.5,15.2c0-1.7,0.7-2.5,2.2-2.5H32c1.5,0,2,0.4,2,1.7v3.3h-9.5
                            V15.2z"></path>
                        <path class="st0" d="M12.9,14.8c0-1.6-0.5-2.1-2.2-2.1H5.5c-1.7,0-2.2,0.5-2.2,2.1V29H0V14.5c0-3.3,2-5,5.5-5h5.1
                            c3.5,0,5.5,1.8,5.5,5V29h-3.2V14.8z"></path>
                        <path class="st0" d="M54.5,29c-6.2,0-11.3-5.1-11.3-11.3h4c0,4.1,3.3,7.3,7.3,7.3V29z"></path>
                        <path class="st0" d="M69.5,29c-6.2,0-11.3-5.1-11.3-11.3h4c0,4.1,3.3,7.3,7.3,7.3V29z"></path>
                        <path class="st0" d="M84.6,29c-6.2,0-11.3-5.1-11.3-11.3h4c0,4.1,3.3,7.3,7.3,7.3V29z"></path>
                    </g>
                    <g id="logo-gray">
                        <polygon class="st1" points="77.3,4.4 77.3,0 73.3,0 73.3,4.4 62.2,4.4 62.2,0 58.2,0 58.2,4.4 47.1,4.4 47.1,0 43.2,0 43.2,4.4
                            37.3,4.4 37.3,8.4 43.2,8.4 43.2,12.8 47.1,12.8 47.1,8.4 58.2,8.4 58.2,12.8 62.2,12.8 62.2,8.4 73.3,8.4 73.3,12.8 77.3,12.8
                            77.3,8.4 83.3,8.4 83.3,4.4 	"></polygon>
                        <g>
                            <path class="st1" d="M0.2,35.9h0.3v4.3H0.2V35.9z"></path>
                            <path class="st1" d="M3.8,36.4v3.7H3.4v-4.3h0.3l2.5,3.7v-3.7h0.3v4.3H6.2L3.8,36.4z"></path>
                            <path class="st1" d="M10.5,40.1h-0.3v-4H9v-0.3h2.9v0.3h-1.3V40.1z"></path>
                            <path class="st1" d="M14.2,35.9h2.6v0.3h-2.3v1.7h1.9v0.3h-1.9v1.7h2.3v0.3h-2.6V35.9z"></path>
                            <path class="st1" d="M20.9,38.2h-1.2v2h-0.3v-4.3H21c0.7,0,1.2,0.4,1.2,1.1c0,0.6-0.4,1-1,1.2l1,2h-0.4L20.9,38.2z M21,36.2h-1.3
                                v1.7H21c0.6,0,0.9-0.3,0.9-0.9C21.9,36.4,21.5,36.2,21,36.2z"></path>
                            <path class="st1" d="M27,39.1h-2l-0.4,1h-0.3l1.6-4.3h0.3l1.6,4.3h-0.3L27,39.1z M25.1,38.8h1.8L26,36.3L25.1,38.8z"></path>
                            <path class="st1" d="M31.3,40.2c-0.4,0-0.8-0.2-1.1-0.4c-0.4-0.4-0.4-0.8-0.4-1.7c0-1,0-1.3,0.4-1.7c0.3-0.3,0.7-0.4,1.1-0.4
                                c0.8,0,1.3,0.5,1.5,1.2h-0.3c-0.1-0.6-0.5-1-1.1-1c-0.3,0-0.6,0.1-0.8,0.3c-0.3,0.3-0.3,0.6-0.3,1.6c0,0.9,0,1.2,0.3,1.6
                                c0.2,0.2,0.5,0.3,0.8,0.3c0.6,0,1-0.4,1.1-1h0.3C32.6,39.7,32,40.2,31.3,40.2z"></path>
                            <path class="st1" d="M36.4,40.1h-0.3v-4h-1.3v-0.3h2.9v0.3h-1.3V40.1z"></path>
                            <path class="st1" d="M40.1,35.9h0.3v4.3h-0.3V35.9z"></path>
                            <path class="st1" d="M43.3,35.9h2.6v0.3h-2.3v1.7h1.9v0.3h-1.9v1.7h2.3v0.3h-2.6V35.9z"></path>
                            <path class="st1" d="M49.2,40.1l-1.4-4.3h0.3l1.2,3.7l1.2-3.7h0.3l-1.4,4.3H49.2z"></path>
                            <path class="st1" d="M53.2,35.9h2.6v0.3h-2.3v1.7h1.9v0.3h-1.9v1.7h2.3v0.3h-2.6V35.9z"></path>
                            <path class="st1" d="M64.7,36.6l-1.3,2.9h-0.3l-1.3-2.9v3.5h-0.3v-4.3h0.3l1.5,3.3l1.5-3.3H65v4.3h-0.3V36.6z"></path>
                            <path class="st1" d="M67.9,35.9h2.6v0.3h-2.3v1.7h1.9v0.3h-1.9v1.7h2.3v0.3h-2.6V35.9z"></path>
                            <path class="st1" d="M75.6,39.8c-0.3,0.3-0.6,0.4-1.1,0.4h-1.4v-4.3h1.4c0.5,0,0.8,0.1,1.1,0.4C76,36.7,76,37.4,76,38
                                C76,38.5,76,39.3,75.6,39.8z M75.3,36.5c-0.2-0.3-0.6-0.3-0.9-0.3h-1v3.7h1c0.3,0,0.7-0.1,0.9-0.3c0.3-0.4,0.3-1.1,0.3-1.6
                                C75.6,37.5,75.7,36.8,75.3,36.5z"></path>
                            <path class="st1" d="M78.7,35.9H79v4.3h-0.3V35.9z"></path>
                            <path class="st1" d="M84,39.1h-2l-0.4,1h-0.3l1.6-4.3h0.3l1.6,4.3h-0.3L84,39.1z M82.1,38.8h1.8L83,36.3L82.1,38.8z"></path>
                        </g>
                    </g>
                </svg>